# xmcd CD database file
#
# Track frame offsets:
#	150
#	21868
#	36111
#	60719
#	74711
#	87669
#	102594
#	119186
#	131977
#	147159
#	158886
#	172838
#	185197
#	197820
#	208586
#	222298
#	234440
#	248505
#	262849
#	275931
#	288615
#	301793
#
# Disc length: 4201 seconds
#
# Revision: 2
# Processed by: cddbd v1.5.2PL0 Copyright (c) Steve Scherf et al.
# Submitted via: CDex 1.51
#
DISCID=61106716
DTITLE=Milton Buckner - The Swinging Block-Chords Pianist  1943-1950
DYEAR=2002
DGENRE=Jazz
TTITLE0=I Wonder Boogie  (Hamp's Boogie Woogie)
TTITLE1=Million Dollar Smile
TTITLE2=Vibe Boogie
TTITLE3=Hey-Ba-Ba-Re-Bop
TTITLE4=Chord-A-Re-Bop
TTITLE5=How High The Moon
TTITLE6=Brant Inn Boogie
TTITLE7=Twentieth Century Boogie
TTITLE8=Merry Xmas Baby
TTITLE9=Raising The Roof
TTITLE10=Light Out
TTITLE11=Teddy Bear
TTITLE12=Jelly Roll Jam
TTITLE13=Jumpin' In Jack's House
TTITLE14=Back Alley Blues
TTITLE15=Lazy Joe
TTITLE16=Milt's Boogie
TTITLE17=M. B. Blues
TTITLE18=Evil Gal Blues
TTITLE19=In The Evening
TTITLE20=If You Don't Think I'm Thinking
TTITLE21=Jump and Grunt
EXTD=YEAR: 2002
EXTT0=
EXTT1=
EXTT2=
EXTT3=
EXTT4=
EXTT5=
EXTT6=
EXTT7=
EXTT8=
EXTT9=
EXTT10=
EXTT11=
EXTT12=
EXTT13=
EXTT14=
EXTT15=
EXTT16=
EXTT17=
EXTT18=
EXTT19=
EXTT20=
EXTT21=
PLAYORDER=
